{
    "asset" : {
        "generator" : "Khronos glTF Blender I/O v1.2.75",
        "version" : "2.0"
    },
    "scene" : 0,
    "scenes" : [
        {
            "name" : "Scene",
            "nodes" : [
                1
            ]
        }
    ],
    "nodes" : [
        {
            "mesh" : 0,
            "name" : "icing.002",
            "translation" : [
                -0.00042003407725133,
                0.0019349956419318914,
                7.473833829862997e-05
            ]
        },
        {
            "children" : [
                0
            ],
            "mesh" : 1,
            "name" : "donut.002",
            "rotation" : [
                0,
                -0.20146436989307404,
                0,
                0.9794958233833313
            ],
            "translation" : [
                0,
                0.056817129254341125,
                0
            ]
        }
    ],
    "materials" : [
        {
            "doubleSided" : true,
            "emissiveFactor" : [
                0,
                0,
                0
            ],
            "name" : "icing",
            "pbrMetallicRoughness" : {
                "baseColorFactor" : [
                    0.8000000715255737,
                    0.3064662218093872,
                    0.5603964328765869,
                    1
                ],
                "metallicFactor" : 0,
                "roughnessFactor" : 0.40934067964553833
            }
        },
        {
            "doubleSided" : true,
            "emissiveFactor" : [
                0,
                0,
                0
            ],
            "name" : "donut",
            "pbrMetallicRoughness" : {
                "baseColorTexture" : {
                    "index" : 0,
                    "texCoord" : 0
                },
                "metallicFactor" : 0,
                "roughnessFactor" : 0.5
            }
        }
    ],
    "meshes" : [
        {
            "name" : "Torus.005",
            "primitives" : [
                {
                    "attributes" : {
                        "POSITION" : 0,
                        "NORMAL" : 1,
                        "TEXCOORD_0" : 2,
                        "JOINTS_0" : 3,
                        "WEIGHTS_0" : 4
                    },
                    "indices" : 5,
                    "material" : 0
                }
            ]
        },
        {
            "name" : "Torus.004",
            "primitives" : [
                {
                    "attributes" : {
                        "POSITION" : 6,
                        "NORMAL" : 7,
                        "TEXCOORD_0" : 8
                    },
                    "indices" : 9,
                    "material" : 1
                }
            ]
        }
    ],
    "textures" : [
        {
            "source" : 0
        }
    ],
    "images" : [
        {
            "bufferView" : 10,
            "mimeType" : "image/png",
            "name" : "donut_texture"
        }
    ],
    "accessors" : [
        {
            "bufferView" : 0,
            "componentType" : 5126,
            "count" : 15220,
            "max" : [
                0.1576516181230545,
                0.06523061543703079,
                0.14890111982822418
            ],
            "min" : [
                -0.1515771746635437,
                0.00857404712587595,
                -0.1507934331893921
            ],
            "type" : "VEC3"
        },
        {
            "bufferView" : 1,
            "componentType" : 5126,
            "count" : 15220,
            "type" : "VEC3"
        },
        {
            "bufferView" : 2,
            "componentType" : 5126,
            "count" : 15220,
            "type" : "VEC2"
        },
        {
            "bufferView" : 3,
            "componentType" : 5123,
            "count" : 15220,
            "type" : "VEC4"
        },
        {
            "bufferView" : 4,
            "componentType" : 5126,
            "count" : 15220,
            "type" : "VEC4"
        },
        {
            "bufferView" : 5,
            "componentType" : 5123,
            "count" : 85872,
            "type" : "SCALAR"
        },
        {
            "bufferView" : 6,
            "componentType" : 5126,
            "count" : 6345,
            "max" : [
                0.15513411164283752,
                0.061095647513866425,
                0.15181447565555573
            ],
            "min" : [
                -0.1516982913017273,
                -0.056817129254341125,
                -0.1518556922674179
            ],
            "type" : "VEC3"
        },
        {
            "bufferView" : 7,
            "componentType" : 5126,
            "count" : 6345,
            "type" : "VEC3"
        },
        {
            "bufferView" : 8,
            "componentType" : 5126,
            "count" : 6345,
            "type" : "VEC2"
        },
        {
            "bufferView" : 9,
            "componentType" : 5123,
            "count" : 36960,
            "type" : "SCALAR"
        }
    ],
    "bufferViews" : [
        {
            "buffer" : 0,
            "byteLength" : 182640,
            "byteOffset" : 0
        },
        {
            "buffer" : 0,
            "byteLength" : 182640,
            "byteOffset" : 182640
        },
        {
            "buffer" : 0,
            "byteLength" : 121760,
            "byteOffset" : 365280
        },
        {
            "buffer" : 0,
            "byteLength" : 121760,
            "byteOffset" : 487040
        },
        {
            "buffer" : 0,
            "byteLength" : 243520,
            "byteOffset" : 608800
        },
        {
            "buffer" : 0,
            "byteLength" : 171744,
            "byteOffset" : 852320
        },
        {
            "buffer" : 0,
            "byteLength" : 76140,
            "byteOffset" : 1024064
        },
        {
            "buffer" : 0,
            "byteLength" : 76140,
            "byteOffset" : 1100204
        },
        {
            "buffer" : 0,
            "byteLength" : 50760,
            "byteOffset" : 1176344
        },
        {
            "buffer" : 0,
            "byteLength" : 73920,
            "byteOffset" : 1227104
        },
        {
            "buffer" : 0,
            "byteLength" : 1681603,
            "byteOffset" : 1301024
        }
    ],
    "buffers" : [
        {
            "byteLength" : 2982628,
            "uri" : "data:application/octet-stream;base64,"
        }
    ]
}
