{
    "asset" : {
        "generator" : "Khronos glTF Blender I/O v1.2.75",
        "version" : "2.0"
    },
    "scene" : 0,
    "scenes" : [
        {
            "extras" : {
                "glTF2ExportSettings" : {
                    "export_extras" : 1,
                    "export_format" : "GLTF_EMBEDDED"
                }
            },
            "name" : "Scene",
            "nodes" : [
                0
            ]
        }
    ],
    "nodes" : [
        {
            "extras" : {
                "ant_landscape" : {
                    "ant_terrain_name" : "Landscape",
                    "at_cursor" : 1,
                    "smooth_mesh" : 1,
                    "tri_face" : 0,
                    "sphere_mesh" : 0,
                    "land_material" : "",
                    "water_material" : "",
                    "texture_block" : "",
                    "subdivision_x" : 128,
                    "subdivision_y" : 128,
                    "mesh_size_x" : 2,
                    "mesh_size_y" : 4,
                    "mesh_size" : 2,
                    "random_seed" : 0,
                    "noise_offset_x" : 0,
                    "noise_offset_y" : 0,
                    "noise_offset_z" : 0,
                    "noise_size_x" : 1,
                    "noise_size_y" : 1,
                    "noise_size_z" : 1,
                    "noise_size" : 1,
                    "noise_type" : 3,
                    "basis_type" : 0,
                    "vl_basis_type" : 0,
                    "distortion" : 1,
                    "hard_noise" : 0,
                    "noise_depth" : 8,
                    "amplitude" : 0.5,
                    "frequency" : 2,
                    "dimension" : 1,
                    "lacunarity" : 2,
                    "offset" : 1,
                    "gain" : 1,
                    "marble_bias" : 0,
                    "marble_sharp" : 0,
                    "marble_shape" : 0,
                    "height" : 0.5,
                    "height_invert" : 0,
                    "height_offset" : 0,
                    "maximum" : 1,
                    "minimum" : -1,
                    "edge_falloff" : 3,
                    "edge_level" : 0,
                    "falloff_x" : 4,
                    "falloff_y" : 10,
                    "strata_type" : 0,
                    "strata" : 5,
                    "water_plane" : 0,
                    "water_level" : 0.009999999776482582,
                    "vert_group" : "",
                    "remove_double" : 0,
                    "fx_mixfactor" : 0,
                    "fx_mix_mode" : 0,
                    "fx_type" : 0,
                    "fx_bias" : 0,
                    "fx_turb" : 0,
                    "fx_depth" : 0,
                    "fx_frequency" : 2,
                    "fx_amplitude" : 0.5,
                    "fx_size" : 1,
                    "fx_loc_x" : 0,
                    "fx_loc_y" : 0,
                    "fx_height" : 1,
                    "fx_offset" : 0,
                    "fx_invert" : 0
                }
            },
            "mesh" : 0,
            "name" : "Landscape",
            "translation" : [
                0,
                -0.006922484841197729,
                0
            ]
        }
    ],
    "materials" : [
        {
            "doubleSided" : true,
            "emissiveFactor" : [
                0,
                0,
                0
            ],
            "name" : "Material.002",
            "pbrMetallicRoughness" : {
                "baseColorFactor" : [
                    0.800000011920929,
                    0.800000011920929,
                    0.800000011920929,
                    1
                ],
                "metallicFactor" : 0,
                "roughnessFactor" : 0.5
            }
        },
        {
            "doubleSided" : true,
            "emissiveFactor" : [
                0,
                0,
                0
            ],
            "name" : "Material.003",
            "pbrMetallicRoughness" : {
                "baseColorFactor" : [
                    0.800000011920929,
                    0.800000011920929,
                    0.800000011920929,
                    1
                ],
                "metallicFactor" : 0,
                "roughnessFactor" : 0.5
            }
        }
    ],
    "meshes" : [
        {
            "name" : "Landscape",
            "primitives" : [
                {
                    "attributes" : {
                        "POSITION" : 0,
                        "NORMAL" : 1,
                        "TEXCOORD_0" : 2
                    },
                    "indices" : 3,
                    "material" : 0
                },
                {
                    "attributes" : {
                        "POSITION" : 4,
                        "NORMAL" : 5,
                        "TEXCOORD_0" : 6
                    },
                    "indices" : 7,
                    "material" : 1
                }
            ]
        }
    ],
    "accessors" : [
        {
            "bufferView" : 0,
            "componentType" : 5126,
            "count" : 1190,
            "max" : [
                3,
                0.44891515374183655,
                2.000028133392334
            ],
            "min" : [
                -3,
                -0.003828945569694042,
                -2.000028133392334
            ],
            "type" : "VEC3"
        },
        {
            "bufferView" : 1,
            "componentType" : 5126,
            "count" : 1190,
            "type" : "VEC3"
        },
        {
            "bufferView" : 2,
            "componentType" : 5126,
            "count" : 1190,
            "type" : "VEC2"
        },
        {
            "bufferView" : 3,
            "componentType" : 5123,
            "count" : 1854,
            "type" : "SCALAR"
        },
        {
            "bufferView" : 4,
            "componentType" : 5126,
            "count" : 15936,
            "max" : [
                2.9740424156188965,
                0.6533461213111877,
                1.999958872795105
            ],
            "min" : [
                -2.99999737739563,
                -0.00012756134674418718,
                -2.000028133392334
            ],
            "type" : "VEC3"
        },
        {
            "bufferView" : 5,
            "componentType" : 5126,
            "count" : 15936,
            "type" : "VEC3"
        },
        {
            "bufferView" : 6,
            "componentType" : 5126,
            "count" : 15936,
            "type" : "VEC2"
        },
        {
            "bufferView" : 7,
            "componentType" : 5123,
            "count" : 16350,
            "type" : "SCALAR"
        }
    ],
    "bufferViews" : [
        {
            "buffer" : 0,
            "byteLength" : 14280,
            "byteOffset" : 0
        },
        {
            "buffer" : 0,
            "byteLength" : 14280,
            "byteOffset" : 14280
        },
        {
            "buffer" : 0,
            "byteLength" : 9520,
            "byteOffset" : 28560
        },
        {
            "buffer" : 0,
            "byteLength" : 3708,
            "byteOffset" : 38080
        },
        {
            "buffer" : 0,
            "byteLength" : 191232,
            "byteOffset" : 41788
        },
        {
            "buffer" : 0,
            "byteLength" : 191232,
            "byteOffset" : 233020
        },
        {
            "buffer" : 0,
            "byteLength" : 127488,
            "byteOffset" : 424252
        },
        {
            "buffer" : 0,
            "byteLength" : 32700,
            "byteOffset" : 551740
        }
    ],
    "buffers" : [
        {
            "byteLength" : 584440,
            "uri" : "data:application/octet-stream;base64,"
        }
    ]
}
